<svg xmlns="http://www.w3.org/2000/svg" viewBox="0 0 120 76" width="120" height="76">
    <rect width="120" height="76" rx="10" fill="#000000"/>
    <g transform="translate(60, 38)">
      <!-- Apple Logo -->
      <g transform="translate(-32, -4) scale(0.9)">
        <!-- Apple Leaf -->
        <path d="M 1.5 -16 C 5.5 -16 8 -19.5 7.5 -23 C 3.5 -22.5 1 -19.5 1.5 -16 Z" fill="#FFFFFF"/>
        <!-- Apple Body -->
        <path d="M -9 8 C -6 13 -2 13 2 9 C 6 13 10 13 13 8 C 17 -1 13 -13 6 -13 C 2 -13 0 -10 -2 -10 C -4 -10 -6 -13 -10 -13 C -17 -13 -21 0 -15 9 Z" fill="#FFFFFF"/>
      </g>
      <!-- Pay Text -->
      <text x="-4" y="8" font-family="-apple-system, BlinkMacSystemFont, 'Segoe UI', Roboto, sans-serif" font-size="24" font-weight="600" fill="#FFFFFF" letter-spacing="-0.5">Pay</text>
    </g>
  </svg>